<mxfile host="app.diagrams.net" modified="2024-06-17T08:23:31.119Z" agent="Mozilla/5.0 (Windows NT 10.0; Win64; x64) AppleWebKit/537.36 (KHTML, like Gecko) Chrome/125.0.0.0 Safari/537.36" etag="Ai0ytnS2oBG2-eSJ8-Zw" version="24.5.4" type="device">
  <diagram id="h306GEPKoK_FgGEcl6Ah" name="Page-1">
    <mxGraphModel dx="1290" dy="522" grid="1" gridSize="10" guides="1" tooltips="1" connect="1" arrows="1" fold="1" page="1" pageScale="1" pageWidth="850" pageHeight="1100" math="0" shadow="0">
      <root>
        <mxCell id="0" />
        <mxCell id="1" parent="0" />
        <mxCell id="QLNnOZMarZd_dtP7JmZF-6" value="Dataset News&amp;nbsp;&lt;div&gt;Articles&lt;/div&gt;" style="rounded=1;whiteSpace=wrap;html=1;" vertex="1" parent="1">
          <mxGeometry x="110" y="100" width="120" height="60" as="geometry" />
        </mxCell>
        <mxCell id="QLNnOZMarZd_dtP7JmZF-7" value="Preporcessing Data&lt;div&gt;(LR)&lt;/div&gt;" style="rounded=1;whiteSpace=wrap;html=1;" vertex="1" parent="1">
          <mxGeometry x="330" y="100" width="120" height="60" as="geometry" />
        </mxCell>
        <mxCell id="QLNnOZMarZd_dtP7JmZF-8" value="Sentiment analysis" style="rounded=1;whiteSpace=wrap;html=1;" vertex="1" parent="1">
          <mxGeometry x="550" y="100" width="120" height="60" as="geometry" />
        </mxCell>
        <mxCell id="QLNnOZMarZd_dtP7JmZF-9" value="Training the classifer" style="rounded=1;whiteSpace=wrap;html=1;" vertex="1" parent="1">
          <mxGeometry x="550" y="250" width="120" height="60" as="geometry" />
        </mxCell>
        <mxCell id="QLNnOZMarZd_dtP7JmZF-10" value="News Classification" style="rounded=1;whiteSpace=wrap;html=1;" vertex="1" parent="1">
          <mxGeometry x="330" y="250" width="120" height="60" as="geometry" />
        </mxCell>
        <mxCell id="QLNnOZMarZd_dtP7JmZF-11" value="Fake News" style="rounded=1;whiteSpace=wrap;html=1;" vertex="1" parent="1">
          <mxGeometry x="110" y="250" width="120" height="60" as="geometry" />
        </mxCell>
        <mxCell id="QLNnOZMarZd_dtP7JmZF-12" value="True News" style="rounded=1;whiteSpace=wrap;html=1;" vertex="1" parent="1">
          <mxGeometry x="330" y="400" width="120" height="60" as="geometry" />
        </mxCell>
        <mxCell id="QLNnOZMarZd_dtP7JmZF-14" value="" style="shape=flexArrow;endArrow=classic;html=1;rounded=0;exitX=1;exitY=0.5;exitDx=0;exitDy=0;" edge="1" parent="1" source="QLNnOZMarZd_dtP7JmZF-6">
          <mxGeometry width="50" height="50" relative="1" as="geometry">
            <mxPoint x="400" y="180" as="sourcePoint" />
            <mxPoint x="330" y="130" as="targetPoint" />
          </mxGeometry>
        </mxCell>
        <mxCell id="QLNnOZMarZd_dtP7JmZF-15" value="" style="shape=flexArrow;endArrow=classic;html=1;rounded=0;exitX=1;exitY=0.5;exitDx=0;exitDy=0;" edge="1" parent="1">
          <mxGeometry width="50" height="50" relative="1" as="geometry">
            <mxPoint x="450" y="129.5" as="sourcePoint" />
            <mxPoint x="550" y="129.5" as="targetPoint" />
          </mxGeometry>
        </mxCell>
        <mxCell id="QLNnOZMarZd_dtP7JmZF-16" value="" style="shape=flexArrow;endArrow=classic;html=1;rounded=0;exitX=0.5;exitY=1;exitDx=0;exitDy=0;entryX=0.5;entryY=0;entryDx=0;entryDy=0;" edge="1" parent="1" source="QLNnOZMarZd_dtP7JmZF-8" target="QLNnOZMarZd_dtP7JmZF-9">
          <mxGeometry width="50" height="50" relative="1" as="geometry">
            <mxPoint x="600" y="170" as="sourcePoint" />
            <mxPoint x="700" y="170" as="targetPoint" />
          </mxGeometry>
        </mxCell>
        <mxCell id="QLNnOZMarZd_dtP7JmZF-17" value="" style="shape=flexArrow;endArrow=classic;html=1;rounded=0;exitX=0;exitY=0.5;exitDx=0;exitDy=0;entryX=1;entryY=0.5;entryDx=0;entryDy=0;" edge="1" parent="1" source="QLNnOZMarZd_dtP7JmZF-10" target="QLNnOZMarZd_dtP7JmZF-11">
          <mxGeometry width="50" height="50" relative="1" as="geometry">
            <mxPoint x="260" y="160" as="sourcePoint" />
            <mxPoint x="360" y="160" as="targetPoint" />
          </mxGeometry>
        </mxCell>
        <mxCell id="QLNnOZMarZd_dtP7JmZF-18" value="" style="shape=flexArrow;endArrow=classic;html=1;rounded=0;" edge="1" parent="1" source="QLNnOZMarZd_dtP7JmZF-9">
          <mxGeometry width="50" height="50" relative="1" as="geometry">
            <mxPoint x="630" y="390" as="sourcePoint" />
            <mxPoint x="450" y="280" as="targetPoint" />
          </mxGeometry>
        </mxCell>
        <mxCell id="QLNnOZMarZd_dtP7JmZF-19" value="" style="shape=flexArrow;endArrow=classic;html=1;rounded=0;exitX=0.5;exitY=1;exitDx=0;exitDy=0;entryX=0.5;entryY=0;entryDx=0;entryDy=0;" edge="1" parent="1" source="QLNnOZMarZd_dtP7JmZF-10" target="QLNnOZMarZd_dtP7JmZF-12">
          <mxGeometry width="50" height="50" relative="1" as="geometry">
            <mxPoint x="380" y="290" as="sourcePoint" />
            <mxPoint x="370" y="160" as="targetPoint" />
          </mxGeometry>
        </mxCell>
      </root>
    </mxGraphModel>
  </diagram>
</mxfile>
